<?xml version="1.0" encoding="utf-8"?>
<!-- Generator: Adobe Illustrator 25.0.1, SVG Export Plug-In . SVG Version: 6.00 Build 0)  -->
<svg version="1.1" id="Layer_1" xmlns="http://www.w3.org/2000/svg" xmlns:xlink="http://www.w3.org/1999/xlink" x="0px" y="0px"
	 viewBox="0 0 130.6 139.8" style="enable-background:new 0 0 130.6 139.8;" xml:space="preserve">
<style type="text/css">
	.st0{fill:#F3C746;}
	.st1{fill:#2F6EB0;}
	.st2{fill:#FFFFFF;}
	.st3{fill:#8B1D33;}
</style>
<g id="s_Gravendreef">
	<path class="st0" d="M121.6,48.2c-1-3.1-2.3-6.2-3.7-9.2c-1.6-3.2-3.4-6.3-5.4-9.3c-1.1-1.6-1.9-2.8-2.8-3.9s-1.6-2-2.4-2.9
		l-0.6-0.7c-0.7-0.8-1.4-1.6-2.1-2.4l-0.7-0.8c-1.8-2.1-3.7-4-5.8-5.8c-1.6-1.3-4-1.1-5.3,0.5c-0.6,0.8-0.9,1.7-0.8,2.7
		c-1.6-1.1-3.2-2.1-4.9-3.1c-4.5-2.4-9.3-4.2-14.3-5.2c-5-1.1-10.1-1.5-15.3-1.3c-5.1,0.3-10.1,1.3-14.8,3
		c-4.6,1.7-8.9,4.1-12.7,7.3c-1.8,1.5-3.6,3.2-5.2,5c-1.7,1.9-3.2,4-4.5,6.3c-2.5,4.3-4.5,9-5.7,13.9c-0.5,1.7-0.8,3.4-1.1,5.1
		c-0.6,0.9-1.2,1.9-1.8,3c-1.1,2-2.1,4.1-2.8,6.3c-0.8,2.4-1.3,4.9-1.4,7.4c-0.2,2.3-0.1,4.6,0.2,6.9v0.3c0.4,2.5,1.1,4.9,2.1,7.2
		c2.1,4.5,5,8.6,8.5,12.2c0.9,1,2,1.9,3,2.8c1.5,2.5,3.2,4.8,5,7.1c3.2,3.8,6.9,7.2,11,9.9c4.2,2.8,8.7,5,13.5,6.7
		c4.8,1.6,9.8,2.6,14.9,3.1c10.3,1.1,20.7-0.3,30.3-4.1c2.3-1,4.5-2.1,6.6-3.3c2.1-1.2,4.1-2.6,5.9-4.2c1.8-1.6,3.5-3.3,5.1-5.1
		c1.7-2,3.2-4.1,4.5-6.4c2.5-4.3,4.2-8.9,5.2-13.7c1.2-5,1.7-10.2,1.7-15.3c0-2.5-0.2-5.1-0.5-7.6C123.9,56.4,123,52.2,121.6,48.2
		L121.6,48.2z M95.5,107.3c2.1-1.4,4.1-3,5.9-4.8c3.6-3.4,6.3-7.8,8.6-11.7c2.3-3.7,4.2-7.6,5.7-11.7c-0.4,2.3-1,4.6-1.6,6.8
		c-0.9,2.9-2.2,5.6-3.8,8.2c-1.8,2.7-3.8,5.1-6.1,7.4c-2.3,2-4.7,3.8-7.4,5.2c-0.8,0.4-1.7,0.8-2.5,1.2
		C94.7,107.7,95.1,107.5,95.5,107.3z M27.3,31.1c1.7-2.5,3.6-4.9,5.8-7c2.2-2,4.7-3.8,7.3-5.3c3.3-1.7,6.8-2.9,10.4-3.8
		c4-0.8,8.1-1.2,12.2-1.1c4.4,0.2,8.8,1,13,2.3c3.6,1.2,7.1,2.7,10.3,4.7c0.6,0.4,1.2,0.8,1.8,1.2c-3.1-0.8-6.3-1.3-9.5-1.6
		c-10.5-1.2-21.2,0-31.2,3.4c-5,1.7-9.7,3.8-14.3,6.4c-2.9,1.6-5.7,3.5-8.3,5.5C25.6,34.2,26.4,32.6,27.3,31.1L27.3,31.1z
		 M58.4,110.1c5,1.1,10.2,1.8,15.3,2c1.5,0.1,3.2,0.1,4.9,0.1c-3,0.3-6,0.4-9,0.3c-5.2-0.2-10.4-1.1-15.4-2.5
		c-2.4-0.8-4.7-1.8-7-2.9C50.7,108.2,54.5,109.2,58.4,110.1L58.4,110.1z"/>
	<polygon class="st1" points="86.3,66.9 86.3,76.9 99.5,67.4 107.4,63.9 112.6,61.9 121.1,72 123.7,99.9 113.9,101.6 100.2,100.7 
		94.3,93.1 84.2,92.9 83.7,99.1 61,100.5 61.3,63.2 	"/>
	<path class="st2" d="M94.3,93.1c-8.6-0.9-17.2,0.1-25.7,0.9c-2.4,0.2-4.9,0.4-7.4,0.5c-0.2,0-0.2,0.3,0,0.3
		c8.6-0.4,17.1-1.7,25.8-1.7c2.5,0,4.9,0.1,7.3,0.3C94.5,93.5,94.5,93.2,94.3,93.1z"/>
	<path class="st2" d="M84,90.6c0.1,1.1,0.1,2.2,0.2,3.4c0,0.5,0,1.1,0,1.7c-0.1,0.5-0.2,1.1-0.2,1.6c0,1.1,0.3,2.1,0.4,3.2
		c0.1,1.1,0.1,2.2,0,3.3c0,0.2,0.3,0.2,0.3,0c0.1-1.1,0.1-2.2,0-3.3c-0.1-1.1-0.3-2.1-0.4-3.2c0-0.5,0.1-1.1,0.2-1.6
		c0-0.5,0-1.1,0-1.7c-0.1-1.1-0.1-2.3-0.2-3.4C84.3,90.3,84,90.3,84,90.6L84,90.6z"/>
	<path class="st2" d="M89.6,91c0.3,0.8,0.6,1.5,0.9,2.3c0.2,0.4,0.3,0.8,0.8,1L91.2,94c-0.1,0.7,0,1.4,0.2,2c0.2,0.3,0.3,0.6,0.4,1
		c0,0.3,0,0.6,0.1,0.9c0.1,0.2,0.2,0.4,0.3,0.5c0.2,0.5,0.3,1.1,0.2,1.6v2.6c0,0.1,0.1,0.2,0.2,0.2c0.1,0,0.2-0.1,0.2-0.2v-2.6
		c0.1-0.6,0-1.2-0.2-1.7c-0.2-0.2-0.3-0.4-0.3-0.7c0-0.2,0-0.3,0-0.5c0-0.3-0.1-0.5-0.2-0.8c-0.2-0.3-0.3-0.6-0.4-1
		c-0.1-0.4-0.1-0.9,0-1.3c0-0.1,0-0.1-0.1-0.2c-0.5-0.1-0.7-1.1-0.9-1.6L90,90.9C89.9,90.7,89.6,90.8,89.6,91L89.6,91z"/>
	<path class="st2" d="M93.7,90.7c0.4,1.1,1,2,1.8,2.7c0.3,0.3,0.7,0.5,1.1,0.5c0.2,0,0.4-0.1,0.6,0c0.7,0,0.8,0.6,1,1.1
		c0.3,1,0.7,2,1.3,2.9c0.3,0.3,0.4,0.7,0.4,1.2c0,0.3,0,0.7-0.1,1l-0.2,2c0,0.2,0.3,0.2,0.3,0l0.2-2c0.2-0.6,0.2-1.2,0-1.8
		c-0.2-0.5-0.6-0.9-0.9-1.4s-0.4-1.2-0.7-1.8c-0.1-0.4-0.3-0.9-0.6-1.3c-0.3-0.4-0.6-0.3-1.1-0.2c-1.5,0.2-2.6-1.8-3-3
		C94,90.5,93.7,90.6,93.7,90.7L93.7,90.7z"/>
	<path class="st2" d="M84.1,97.3c4.3-0.9,8.6,0,12.9-0.1c0.2,0,0.2-0.3,0-0.3C92.7,97,88.3,96,84,97C83.8,97,83.9,97.4,84.1,97.3
		L84.1,97.3z"/>
	<path class="st2" d="M94.2,91.3c-0.2,0.7-0.1,1.4,0.1,2c0,0.1,0.1,0.1,0.2,0.1c0.1,0,0.1-0.1,0.1-0.2c-0.2-0.6-0.3-1.2-0.1-1.8
		C94.6,91.2,94.3,91.1,94.2,91.3L94.2,91.3z"/>
	<path class="st2" d="M95.2,92.8c-0.1-0.1-0.3,0-0.4,0.1c0,0,0,0,0,0c-0.1,0.1-0.1,0.3-0.1,0.4c0,0.3,0,0.6,0.1,0.9
		c0,0.1,0.1,0.1,0.2,0.1c0.1,0,0.1-0.1,0.1-0.2c0,0,0,0,0,0c0-0.2-0.1-0.4-0.1-0.7v-0.3l0,0c0,0,0-0.1,0,0l0,0c0,0-0.1,0-0.1,0
		c0.1,0,0.2,0,0.2-0.1C95.3,93,95.2,92.9,95.2,92.8L95.2,92.8z"/>
	<path class="st2" d="M95.7,93.4c-0.1,0.6-0.2,1.1-0.2,1.7c0,0.1,0,0.3,0,0.4c0,0.1,0,0.3,0.1,0.4c0.2,0.2,0.5,0,0.3-0.2
		s-0.4,0.1-0.2,0.2l0,0v-0.1c0.2,0,0.2,0,0.2-0.1l0,0c0,0,0-0.1,0-0.2c0-0.1,0-0.2,0-0.3s0-0.4,0-0.6c0-0.4,0-0.8,0.1-1.2
		C96,93.3,95.7,93.2,95.7,93.4L95.7,93.4z"/>
	<path class="st2" d="M96.3,93.8c-0.2,1-0.3,2-0.2,3c0,0.2,0.4,0.2,0.3,0c-0.1-1,0-1.9,0.2-2.9C96.6,93.7,96.3,93.6,96.3,93.8
		L96.3,93.8z"/>
	<path class="st2" d="M97.4,93.7c-0.3,1-0.4,2.1-0.4,3.1c0,0.2,0.3,0.2,0.3,0c0-1,0.1-2,0.3-3c0-0.1-0.1-0.2-0.2-0.2
		C97.5,93.6,97.4,93.6,97.4,93.7L97.4,93.7z"/>
	<path class="st2" d="M98.1,94.2c-0.2,0.6-0.2,1.2-0.2,1.7v0.9c0,0.3,0,0.7-0.1,1C97.8,98,98,98.2,98.1,98c0.1-0.3,0.1-0.6,0.1-0.9
		v-1.9c0-0.3,0-0.6,0.1-0.9C98.5,94.1,98.2,94,98.1,94.2z"/>
	<path class="st2" d="M98.7,96.6c-0.1,0.9-0.1,1.7-0.1,2.6c0,0.2,0.3,0.2,0.3,0c-0.1-0.9,0-1.7,0.1-2.6c0-0.1-0.1-0.2-0.2-0.2
		C98.7,96.4,98.7,96.5,98.7,96.6C98.7,96.6,98.7,96.6,98.7,96.6z"/>
	<path class="st2" d="M99.6,97.9c-0.2,0.8-0.3,1.5-0.3,2.3c0,0.2,0.3,0.2,0.3,0c0-0.7,0.1-1.5,0.3-2.2c0-0.1-0.1-0.2-0.2-0.2
		C99.7,97.8,99.6,97.9,99.6,97.9L99.6,97.9z"/>
	<path class="st2" d="M89.9,93.3c0.2,0.7,0.3,1.4,0.2,2.1c0,0.2,0.3,0.2,0.3,0c0.1-0.7,0-1.5-0.2-2.2c0-0.1-0.1-0.1-0.2-0.1
		C89.9,93.2,89.9,93.2,89.9,93.3z"/>
	<path class="st2" d="M90.9,93.8c-0.1,0.9-0.2,1.8-0.2,2.7c0,0.2,0.3,0.2,0.3,0c0-0.9,0.1-1.8,0.2-2.7c0-0.1,0-0.2-0.1-0.2
		C91,93.7,90.9,93.7,90.9,93.8z"/>
	<path class="st2" d="M91.4,96.7c0,0.4,0,0.9,0,1.3c0,0.1,0,0.2,0,0.3c0,0.1,0,0.2,0,0.3c0,0.1,0.2,0.2,0.3,0.2c0,0,0.1,0,0.1-0.1
		c0.1-0.1,0.1-0.2,0-0.2c-0.1-0.1-0.2-0.1-0.2,0l0,0h0.1c0.1,0,0.1,0,0.1,0l0,0v-0.1c0-0.1,0-0.2,0-0.2v-0.5c0-0.3,0-0.7,0-1
		S91.4,96.5,91.4,96.7L91.4,96.7z"/>
	<path class="st2" d="M92.2,98.1c-0.1,0.4-0.2,0.9-0.2,1.3c0,0.2,0,0.4,0,0.7c0,0.2,0.2,0.4,0.4,0.3c0.1,0,0.1-0.1,0.1-0.2
		c-0.1-0.1-0.1-0.1-0.2-0.1h0.1h0.1l0,0c0,0,0-0.1,0-0.1c0-0.1,0-0.2,0-0.3v-0.5c0-0.3,0.1-0.7,0.2-1S92.3,97.9,92.2,98.1z"/>
	<path class="st2" d="M94.3,93.5c0.1,0,0.1-0.1,0.1-0.2c0-0.1-0.1-0.1-0.1-0.1c-0.1,0-0.1,0.1-0.1,0.2
		C94.2,93.5,94.2,93.5,94.3,93.5z"/>
	<path class="st2" d="M84.6,104.1c5.1-0.3,10.3-0.7,15.4-1.3c0.1,0,0.2-0.1,0.2-0.2V102c0-0.2-0.3-0.2-0.3,0v0.7l0.2-0.2
		c-5.1,0.6-10.3,1-15.4,1.2C84.4,103.8,84.4,104.1,84.6,104.1L84.6,104.1z"/>
	<path class="st2" d="M114,101.2c0.2-2.4-0.1-4.9-0.7-7.2c-0.5-1.2-0.8-2.3-1-3.6c-0.1-1.3,0-2.6,0.1-3.9c0.2-5.3,0.1-10.6,0.2-15.9
		l0.1-9c0-0.1-0.1-0.3-0.3-0.3c0,0,0,0,0,0c-1.7,0.4-3.1,1.5-4.7,2.3c-1.8,0.9-3.9,1.3-5.7,2.2c-1.8,1-3.6,2-5.2,3.2
		c-1.7,1.2-3.4,2.3-5.1,3.6c-1.9,1.4-3.7,2.8-5.5,4.3c-0.3,0.2,0.1,0.6,0.4,0.4c3.2-2.6,6.5-5.1,9.9-7.4c1.6-1.1,3.3-2.2,5-3.2
		c1.8-0.8,3.7-1.6,5.6-2.2c1.9-0.8,3.4-2.2,5.4-2.7l-0.3-0.2l-0.2,15.9c0,2.7,0,5.3-0.1,8c0,1.3-0.2,2.6-0.2,3.9
		c0,1.2,0.2,2.3,0.6,3.4c0.5,1.3,0.8,2.6,1.1,4c0.1,1.5,0.2,2.9,0.1,4.4C113.4,101.6,113.9,101.6,114,101.2L114,101.2z"/>
	<path class="st2" d="M86.3,66.4c-0.1,2.2,0,4.3,0.2,6.5c0.1,2.1-0.3,4.3-0.4,6.4c-0.2,4.5-0.2,9-0.2,13.5c0,0.1,0.1,0.2,0.2,0.2
		c0.1,0,0.2-0.1,0.2-0.2c0.1-4.5,0.1-9,0.2-13.5c0.1-2.1,0.4-4.2,0.4-6.3c-0.2-2.2-0.2-4.4-0.2-6.6C86.6,66.2,86.3,66.2,86.3,66.4z"
		/>
	<path class="st2" d="M87.3,88.5c1.1-0.4,2.2-0.6,3.4-0.8c0.5-0.1,1.1-0.1,1.6-0.1c0.6-0.1,1.2,0,1.7,0.2l0-0.2
		c-0.2,0.4-0.3,0.8-0.3,1.3l0.2-0.2c-1.2-0.3-2.4-0.3-3.5-0.1c-0.6,0.1-1.3,0.2-1.9,0.3c-0.3,0-0.6,0-0.9,0s-0.3,0-0.4-0.3
		c0-0.2,0-0.4,0.1-0.6c0-0.2-0.3-0.3-0.3-0.1s-0.2,1.1,0.3,1.2c0.3,0,0.7,0,1,0c0.4,0,0.7-0.1,1.1-0.1c1.5-0.4,3-0.4,4.6-0.1
		c0.1,0,0.2,0,0.2-0.1c0,0,0,0,0,0c0-0.4,0.1-0.8,0.3-1.1c0-0.1,0-0.2-0.1-0.2c-0.4-0.2-1-0.3-1.4-0.3c-0.6,0-1.3,0.1-1.9,0.1
		c-1.2,0.1-2.4,0.4-3.6,0.8c-0.1,0-0.1,0.1-0.1,0.2S87.3,88.5,87.3,88.5L87.3,88.5L87.3,88.5z"/>
	<path class="st2" d="M93.4,88.5c-0.1,1.6-0.2,3.1-0.2,4.7c0,0.2,0.3,0.2,0.3,0V93c0-0.2-0.3-0.2-0.3,0v0.2h0.3
		c0-1.6,0.1-3.1,0.2-4.7C93.7,88.3,93.4,88.3,93.4,88.5L93.4,88.5z"/>
	<path class="st2" d="M88.5,89.3c0.2,1.2,0.4,2.4,0.7,3.6c0,0.2,0.4,0.1,0.3-0.1c-0.2-1.2-0.4-2.4-0.7-3.6
		C88.8,89,88.5,89.1,88.5,89.3z"/>
	<path class="st2" d="M100,100.4c0.8,0.3,1.6,0.4,2.4,0.3h3.2c2.1,0,4.1,0.2,6.2,0.5c0.8,0.3,1.6,0.4,2.5,0.4c1-0.2,1.9-0.6,2.8-0.9
		c2-0.5,4.1-0.7,6.2-0.7c0.1,0,0.1-0.1,0.1-0.2c0-0.1-0.1-0.1-0.1-0.1c-2.8,0-5.6,0.4-8.3,1.3c-0.5,0.2-1.1,0.3-1.6,0.2
		c-0.5-0.1-1-0.3-1.5-0.4c-1.8-0.3-3.7-0.5-5.6-0.5c-1,0-1.9,0-2.9,0h-1.5c-0.6,0.1-1.2,0-1.8-0.2C100,100.1,99.8,100.3,100,100.4
		L100,100.4z"/>
	<path class="st2" d="M120.8,72c0.4,2.3,0.2,4.7,0.4,7.1s0.5,4.6,0.8,6.8c0.5,4.6,1,9.3,1.5,13.9c0,0.2,0.3,0.2,0.3,0v-0.4
		c0-0.2-0.3-0.2-0.3,0v0.4h0.3c-0.5-4.7-1-9.4-1.6-14.2c-0.3-2.3-0.6-4.6-0.8-7c0-2.3-0.1-4.5-0.4-6.8
		C121.2,71.7,120.8,71.7,120.8,72L120.8,72z"/>
	<path class="st2" d="M121.1,71.5c-3-3-5.7-6.3-8.3-9.6c-0.1-0.2-0.4,0.1-0.2,0.2c2.6,3.4,5.4,6.6,8.3,9.6
		C121.1,71.9,121.3,71.7,121.1,71.5z"/>
	<path class="st2" d="M83.9,98.6c-3.7-0.2-7.4,0-11,0.6c-1.9,0.3-3.9,0.6-5.8,0.8s-3.8,0.3-5.7,0.4c-0.2,0-0.2,0.3,0,0.3
		c1.9-0.1,3.8-0.2,5.7-0.4s3.7-0.5,5.5-0.8c3.8-0.7,7.6-0.9,11.4-0.6C84.1,99,84.1,98.7,83.9,98.6L83.9,98.6z"/>
	<path class="st2" d="M78.8,93.5c0.1,1.9,0.1,3.8,0,5.7c0,0.2,0.3,0.2,0.3,0c0.1-1.9,0.1-3.8,0-5.7C79.2,93.3,78.8,93.3,78.8,93.5z"
		/>
	<path class="st2" d="M79,93.2v-4.3l-0.2,0.2l2.8,0.2L81.5,89c0,1.2,0,2.4,0.1,3.7c0,0.2,0.3,0.2,0.3,0c-0.1-1.2-0.2-2.4-0.1-3.7
		c0-0.1-0.1-0.2-0.1-0.2c0,0,0,0,0,0l-2.8-0.2c-0.1,0-0.2,0.1-0.2,0.2c0,0,0,0,0,0c0,1.4,0,2.8,0,4.3c0,0.1,0.1,0.1,0.2,0.1
		C78.9,93.2,79,93.2,79,93.2L79,93.2z"/>
	<path class="st2" d="M83.9,90.6c-3.9,0.4-7.8,0.7-11.8,0.9c-2,0-3.9,0.1-5.9,0c-0.9,0-1.9,0-2.8-0.1c-0.7,0-1.7-0.2-2.3,0.2
		c-0.2,0.1,0,0.4,0.2,0.3c0.5-0.2,1-0.2,1.5-0.1h1.3c0.9,0,1.9,0,2.8,0.1c1.9,0,3.8,0,5.6-0.1c3.8-0.1,7.5-0.4,11.3-0.8
		C84.1,90.9,84.1,90.5,83.9,90.6L83.9,90.6z"/>
	<path class="st3" d="M8.5,49v20.2l5.4-0.5l-0.2,9.7L36,75.6l30.6-0.3v-0.7h3.1L71.5,62l-1,0.1c0,0-0.2-1.9-0.2-1.8s3.3-1,3.3-1
		l-0.2-7l-3.3,0.1l0.2-1.6c0,0,6.7-1.5,6.3-1.5s-10-1.3-10.4-1.2s-10.7-4.6-10.7-4.6l-28.7-2.6L8.5,49z"/>
	<path class="st2" d="M32.2,45.9c-0.2-0.1-0.4-0.1-0.5-0.2c-0.2,0-0.4,0-0.6,0c-0.2,0-0.3,0.1-0.4,0.2c-0.1,0.1-0.1,0.3-0.1,0.4
		c0.1,0.2,0.2,0.3,0.3,0.4c0.2,0.1,0.4,0.3,0.7,0.4h0.1c0.2,0.1,0.3,0.2,0.5,0.3c0.2,0.1,0.3,0.2,0.5,0.4c0.3,0.4,0.4,0.9,0.2,1.3
		c0,0.1-0.1,0.3-0.2,0.4c-0.2,0.4-0.5,0.6-0.9,0.8c-0.3,0.1-0.7,0.1-1.1,0c-0.3-0.1-0.7-0.3-0.9-0.6c-0.2-0.3-0.3-0.7-0.3-1.1
		c0-0.1,0-0.2,0.1-0.2c0.1-0.1,0.2-0.1,0.2-0.1c0.1,0,0.2,0.1,0.2,0.1c0.1,0.1,0.1,0.2,0.1,0.2c0,0.2,0,0.5,0.2,0.7
		c0.1,0.2,0.3,0.3,0.5,0.4c0.2,0.1,0.4,0.1,0.6,0c0.3-0.1,0.5-0.3,0.6-0.5c0-0.1,0.1-0.1,0.1-0.2c0-0.1,0-0.3,0-0.4
		c0-0.1-0.1-0.2-0.1-0.2c-0.1-0.1-0.2-0.2-0.3-0.2c-0.2-0.1-0.3-0.2-0.5-0.2l0,0h-0.1l-0.4-0.2c-0.1-0.1-0.3-0.2-0.4-0.2
		c-0.3-0.2-0.5-0.5-0.5-0.8c-0.1-0.3,0-0.7,0.2-0.9c0.2-0.2,0.5-0.4,0.8-0.4c0.3,0,0.6,0,0.9,0c0.3,0,0.5,0.1,0.8,0.2
		c0.1,0,0.1,0.1,0.2,0.2c0,0.1,0,0.2,0,0.2c0,0.1-0.1,0.1-0.2,0.2C32.4,45.9,32.3,45.9,32.2,45.9z"/>
	<path class="st2" d="M35.9,47.7H36h0.1l0.4,0h0.3l0.5-0.1c0.1,0,0.2,0,0.2,0.1c0.1,0,0.1,0.1,0.1,0.2c0,0,0,0.1,0,0.1
		c0,0.5-0.1,1-0.3,1.4c-0.1,0.2-0.3,0.5-0.5,0.7c-0.2,0.2-0.4,0.3-0.6,0.4c-0.3,0.1-0.6,0.1-0.9,0c-0.3-0.1-0.6-0.3-0.8-0.5
		c-0.2-0.3-0.4-0.6-0.5-1c-0.1-0.3-0.1-0.7-0.1-1c0-0.7,0.2-1.3,0.5-1.8c0.3-0.4,0.6-0.8,1.1-0.9c0.2-0.1,0.4-0.1,0.7-0.1
		c0.2,0,0.4,0.1,0.6,0.3c0.4,0.4,0.6,0.9,0.5,1.4c0,0.1,0,0.2-0.1,0.2c-0.1,0.1-0.1,0.1-0.2,0.1c-0.1,0-0.2,0-0.2-0.1
		c-0.1-0.1-0.1-0.1-0.1-0.2c0-0.3-0.1-0.7-0.3-0.9c-0.2-0.1-0.4-0.2-0.6-0.1c-0.3,0.1-0.6,0.4-0.8,0.7C35,47,34.8,47.5,34.8,48
		c-0.1,0.5,0.1,1.1,0.4,1.5c0.1,0.1,0.3,0.2,0.4,0.3c0.2,0.1,0.3,0.1,0.5,0c0.3-0.1,0.6-0.4,0.7-0.7c0.1-0.3,0.2-0.6,0.2-0.9h-0.2
		h-0.3l-0.4,0h-0.2c-0.1,0-0.2,0-0.2-0.1c-0.1-0.1-0.2-0.3-0.1-0.5C35.7,47.7,35.8,47.7,35.9,47.7z"/>
	<path class="st2" d="M39.9,45.3h0.5c0.2,0,0.4,0.1,0.6,0.1c0.5,0.1,1,0.3,1.3,0.6c0.4,0.4,0.6,1,0.4,1.6c-0.1,0.6-0.4,1.2-0.9,1.6
		c-0.6,0.5-1.3,1-2,1.3c-0.1,0.1-0.2,0.1-0.3,0c-0.1,0-0.1,0-0.2-0.1c0,0-0.1-0.1-0.1-0.2c-0.2-1.6-0.2-3.2,0-4.7
		c0-0.1,0.1-0.2,0.1-0.2c0.1,0,0.1-0.1,0.2-0.1L39.9,45.3z M40,49.9c0.6-0.3,1.1-0.6,1.5-1.1c0.3-0.3,0.6-0.7,0.7-1.2
		c0.1-0.4,0-0.7-0.2-1c-0.3-0.2-0.6-0.4-1-0.5c-0.2,0-0.4-0.1-0.6-0.1L40,46C39.9,47.3,39.9,48.6,40,49.9z"/>
	<path class="st2" d="M47.1,46.7c-0.1-0.2-0.3-0.3-0.5-0.3c-0.4-0.1-0.9,0-1.2,0.3c-0.4,0.3-0.6,0.7-0.7,1.2c-0.1,0.5-0.1,1,0,1.4
		c0.1,0.5,0.5,0.8,0.9,1c0.4,0.2,0.8,0.1,1.2-0.1c0.2-0.1,0.3-0.2,0.5-0.4c0.1-0.2,0.2-0.4,0.3-0.5c0-0.1,0.1-0.1,0.2-0.2
		c0.1,0,0.2,0,0.2,0c0.1,0,0.2,0.1,0.2,0.2c0,0.1,0,0.2,0,0.2c-0.1,0.3-0.2,0.5-0.4,0.8c-0.2,0.2-0.4,0.4-0.6,0.6
		c-0.3,0.1-0.5,0.2-0.8,0.2c-0.3,0-0.6,0-0.9-0.1c-0.6-0.2-1-0.7-1.2-1.3c-0.2-0.6-0.2-1.3,0-1.9c0.1-0.6,0.4-1.1,0.9-1.5
		c0.5-0.4,1.2-0.6,1.8-0.5c0.2,0,0.4,0.1,0.5,0.2c0.2,0.1,0.4,0.3,0.4,0.5c0,0.1,0,0.2,0,0.2c0,0.1-0.1,0.1-0.2,0.2
		c-0.1,0-0.2,0-0.2,0C47.2,46.9,47.2,46.8,47.1,46.7z"/>
	<path class="st2" d="M66.8,74.1l-0.2,3.9v0.6c0,0.2,0.4,0.2,0.4,0l0.2-3.9v-0.6C67.1,73.9,66.8,73.9,66.8,74.1L66.8,74.1z"/>
	<path class="st2" d="M66.9,74.2l4-0.2h0.6c0.2,0,0.2-0.4,0-0.4l-4,0.2h-0.6C66.7,73.8,66.7,74.2,66.9,74.2z"/>
	<path class="st2" d="M69.9,74l-0.3,4v0.6c0,0.2,0.2,0.2,0.3,0.1l0.2-0.2c0.1-0.2-0.2-0.4-0.3-0.2l-0.2,0.2l0.3,0.1l0.3-4V74
		C70.3,73.8,69.9,73.8,69.9,74L69.9,74z"/>
	<path class="st2" d="M36.6,75.3v-0.3c0-0.1-0.1-0.2-0.2-0.2c0,0-0.1,0-0.1,0l-4.9,3l-0.7,0.4c-0.1,0.1-0.1,0.2-0.1,0.3
		c0,0.1,0.1,0.1,0.2,0.1l0.4-0.1c0.1,0,0.2-0.1,0.1-0.2c0-0.1-0.1-0.2-0.2-0.1l-0.4,0.1l0.1,0.3l4.9-3l0.7-0.4l-0.3-0.2v0.3
		C36.2,75.6,36.6,75.6,36.6,75.3z"/>
	<path class="st2" d="M36.4,74.7l-8.7,1.2l-13.9,1.9l-3.2,0.4c-0.1,0-0.1,0.2-0.1,0.2c0,0,0.1,0.1,0.1,0.1l0,0
		c0.2,0.1,0.4-0.2,0.2-0.3h-0.1v0.3l8.7-1.2l13.8-1.9l3.2-0.4C36.8,75.1,36.6,74.7,36.4,74.7z"/>
	<path class="st2" d="M36.2,75.2l10.4-0.1l16.5-0.2h3.8c0.1,0,0.1,0,0.1-0.1s0-0.1-0.1-0.1c0,0,0,0-0.1,0l-10.4,0.1L40,75h-3.8
		C36.1,75,36.1,75.2,36.2,75.2L36.2,75.2z"/>
	<path class="st2" d="M34.7,76.2l10.8-0.2l17.2-0.2h3.9c0.1,0,0.1,0,0.1-0.1c0-0.1,0-0.1-0.1-0.1l-10.8,0.2L38.7,76l-3.9,0.1
		C34.7,76.1,34.6,76.1,34.7,76.2C34.7,76.2,34.7,76.2,34.7,76.2L34.7,76.2z"/>
	<path class="st2" d="M34,76.9l11.2-0.1l17.7-0.2h4.1c0.1,0,0.1,0,0.1-0.1s0-0.1-0.1-0.1c0,0,0,0-0.1,0l-11.2,0.1L38,76.7h-4.1
		C33.8,76.7,33.8,76.9,34,76.9L34,76.9z"/>
	<path class="st2" d="M32.8,77.6l11.5-0.1l18.4-0.2h4.2c0.1,0,0.1,0,0.1-0.1c0-0.1,0-0.1-0.1-0.1l-11.5,0.1L37,77.3l-4.2,0.1
		C32.7,77.4,32.7,77.5,32.8,77.6C32.7,77.6,32.8,77.6,32.8,77.6L32.8,77.6z"/>
	<path class="st2" d="M31.1,78.6l12-0.1l19-0.2h4.3c0.1,0,0.2-0.1,0.2-0.2c0-0.1-0.1-0.1-0.2-0.2l-12,0.1l-19,0.2h-4.4
		c-0.1,0-0.2,0.1-0.2,0.2C30.9,78.5,31,78.6,31.1,78.6L31.1,78.6z"/>
	<path class="st2" d="M75.9,48.3l-4.8-0.6l-3.4-0.4c-0.6-0.1-1.2-0.2-1.9-0.2c-0.1,0,0.2,0.1,0.1,0c-0.1,0-0.1-0.1-0.2-0.1
		c-0.3-0.1-0.5-0.3-0.8-0.4l-2.8-1.4l-5.7-2.8c-0.2-0.1-0.5-0.3-0.8-0.3c-0.3,0-0.6,0-0.9-0.1l-4.5-0.4l-14.1-1.2L30,40
		c-1.1-0.1-2.1-0.2-3.2-0.3h-0.1c-0.5,0-0.5,0.7,0,0.8l7.8,0.6l14.2,1.2l5.2,0.4l1.4,0.1c0.1,0,0.2,0,0.3,0c0.1,0-0.2-0.1-0.1,0
		c0.6,0.3,1.2,0.6,1.8,0.9l3.1,1.5c1.7,0.8,3.3,1.7,5,2.5c0.3,0.1,0.7,0.2,1,0.2l2.9,0.3l6.2,0.8h0.4C76.4,49.1,76.4,48.3,75.9,48.3
		L75.9,48.3z"/>
	<path class="st2" d="M26.5,39.8l-16,7.5L9,48c-0.3,0.1-0.5,0.3-0.7,0.5c-0.2,0.3,0.1,0.7,0.4,0.6h0.1c0.2-0.1,0.3-0.3,0.3-0.5
		c-0.1-0.2-0.3-0.3-0.5-0.3H8.6L9,48.8c0-0.1-0.1,0.1,0,0l0.4-0.2l1.3-0.6l4.2-2l9.7-4.6l2.3-1.1C27.3,40.2,26.9,39.6,26.5,39.8
		L26.5,39.8z"/>
	<path class="st2" d="M8.6,68.7L9,51.2l0.1-2.5c0-0.2-0.2-0.4-0.4-0.3c-0.2,0-0.3,0.2-0.3,0.3L7.9,66.2l-0.1,2.5
		c0,0.2,0.2,0.4,0.4,0.3C8.5,69,8.6,68.9,8.6,68.7z"/>
	<path class="st2" d="M27,65.6l-16.6,2.5l-2.3,0.3l0.2,0.7l0.4-0.1C9.2,69,9,68.3,8.5,68.4l-0.4,0.1c-0.5,0.1-0.3,0.8,0.2,0.7
		l16.6-2.5l2.3-0.3C27.7,66.3,27.5,65.6,27,65.6L27,65.6z"/>
	<path class="st2" d="M26.9,40.1l0.1-0.2l-0.4-0.1v8.8l0.1,14v3.2c0,0.1,0.1,0.2,0.2,0.2c0,0,0.1,0,0.1,0h0.1c0.2-0.1,0-0.4-0.2-0.3
		h-0.1l0.3,0.2V57L27,43v-3.2c0-0.1-0.1-0.2-0.2-0.2c-0.1,0-0.1,0-0.2,0.1l-0.1,0.2C26.4,40.1,26.7,40.3,26.9,40.1L26.9,40.1z"/>
	<path class="st2" d="M60.4,66.6L49,66.3l-18.1-0.5l-3-0.1h-0.8h-0.2c-0.2,0,0.2,0.1-0.1-0.1l-0.2,0.7h0.1c0.5,0.1,0.5-0.7,0-0.8
		h-0.1c-0.4,0-0.5,0.6-0.2,0.7c0.4,0.2,0.7,0.2,1.1,0.2l2.3,0.1l7.9,0.2l18.4,0.5l4.2,0.1c0.2,0,0.4-0.2,0.3-0.4
		C60.7,66.8,60.5,66.7,60.4,66.6L60.4,66.6z"/>
	<path class="st2" d="M60.9,67.3l9.7,0.1H72c0.2,0,0.4-0.2,0.3-0.4c0-0.2-0.2-0.3-0.3-0.3l-9.7-0.1h-1.4c-0.2,0-0.4,0.2-0.3,0.4
		C60.6,67.2,60.8,67.3,60.9,67.3L60.9,67.3z"/>
	<path class="st2" d="M70.3,49.7c-0.2,0.7-0.2,1.3-0.2,2c0,0.1,0.1,0.1,0.1,0.1c0.4,0,0.9,0,1.3-0.2l3.2-0.6l7.6-1.4l1.8-0.3
		c0.2,0,0.1-0.4-0.1-0.4l-13.2,2.5c-0.1,0-0.3,0-0.4,0.1c-0.2,0.1,0-0.1,0,0c0.1-0.6,0.1-1.2,0.2-1.8C70.7,49.4,70.3,49.4,70.3,49.7
		L70.3,49.7z"/>
	<path class="st2" d="M70.7,49.8l10.8-2l1.5-0.3c0.2,0,0.1-0.4-0.1-0.4l-10.8,2l-1.6,0.3C70.3,49.4,70.4,49.8,70.7,49.8L70.7,49.8z"
		/>
	<path class="st2" d="M83.5,57.5L72,59.1l-1.6,0.2c-0.1,0-0.1,0.1-0.1,0.2c-0.1,0.7-0.1,1.5,0.1,2.2c0,0.1,0.1,0.1,0.2,0.1l10.9-1.6
		L83,60c0.2,0,0.1-0.4-0.1-0.4L72,61.2l-1.6,0.2l0.2,0.1c-0.1-0.2-0.1-0.1-0.1-0.3s0-0.4,0-0.6v-1.1l-0.2,0.2L82,58.1l1.6-0.2
		C83.9,57.8,83.8,57.4,83.5,57.5L83.5,57.5z"/>
	<path class="st2" d="M73.3,51.3l0.2,6.7v1c0,0.1,0.1,0.2,0.2,0.2c0.1,0,0.2-0.1,0.2-0.2l-0.2-6.7v-1C73.7,51.1,73.3,51.1,73.3,51.3
		L73.3,51.3z"/>
	<path class="st2" d="M77.2,50.4c-0.1,0.3-0.1,0.5-0.1,0.8v2L77,57.3c0,0.1,0,0.3,0,0.5c0.1,0.2,0.2,0.4,0.3,0.6
		c0.1,0.1,0.2,0.1,0.3,0.1c0,0,0,0,0.1-0.1l0.1-0.2c0.1-0.2-0.2-0.4-0.3-0.2l-0.1,0.2h0.3l-0.2-0.3c0-0.1-0.1-0.2,0,0l0,0
		c0-0.1,0-0.2,0-0.3v-1.7l0.1-4.3v-0.7c0-0.1,0-0.1,0-0.2c0-0.1,0,0,0,0C77.7,50.5,77.3,50.3,77.2,50.4L77.2,50.4z"/>
	<path class="st2" d="M81.2,50l0.2,7v1c0,0.2,0.4,0.2,0.4,0l-0.2-7v-1C81.5,49.8,81.2,49.8,81.2,50z"/>
	<path class="st2" d="M75.7,38.2l0.2,9.1c0,0.5,0,0.9,0.2,1.3c0.2,0.5,0.9,0.2,0.8-0.2c0-0.1-0.2-0.4-0.1-0.2c0,0,0-0.1,0-0.1
		c0-0.2,0-0.4,0-0.6v-2.3l-0.1-5.6v-1.3c0-0.2-0.2-0.4-0.4-0.3C76,37.9,75.8,38,75.7,38.2L75.7,38.2z"/>
	<path class="st2" d="M26,42.4l-14.7,6.4l-2.1,0.9c-0.1,0-0.1,0.1-0.1,0.2l0.2,15v2.2c0,0.1,0.1,0.2,0.2,0.2c0,0,0,0,0,0l14.5-2.7
		l2-0.4c0.1,0,0.1-0.1,0.1-0.2l-0.1-18.6v-2.6c0-0.1-0.1-0.2-0.2-0.2c-0.1,0-0.1,0.1-0.2,0.2L26,61.3v2.6l0.1-0.2l-14.5,2.8
		l-2.1,0.4l0.2,0.2L9.6,51.6v-1.3c0-0.1,0-0.2,0-0.3c-0.1-0.2,0.1,0-0.1,0c0.2,0,0.3-0.1,0.5-0.2l1.2-0.5l8.5-3.7l6.5-2.8
		C26.5,42.6,26.3,42.3,26,42.4L26,42.4z"/>
	<path class="st2" d="M10.7,50v16.7h0.2v-0.2c0-0.1-0.2-0.1-0.2,0v0.2c0,0.1,0,0.1,0.1,0.1c0.1,0,0.1,0,0.1-0.1V50
		c0-0.1,0-0.1-0.1-0.1C10.7,49.9,10.7,49.9,10.7,50L10.7,50z"/>
	<path class="st2" d="M10.8,50.1l13.6-5.7l1.2-0.5c0.1-0.1,0.3-0.1,0.4-0.2s-0.1-0.2-0.2,0s0.1,0,0,0l-0.3,0.1l-1.1,0.4l-3.6,1.5
		l-8.1,3.4L10.8,50C10.7,50,10.7,50.2,10.8,50.1L10.8,50.1z"/>
	<path class="st2" d="M19.4,67.3l0.3,8.5l0,1.2h0.4L20,75.6c0-0.2-0.4-0.2-0.4,0l0.1,1.4c0,0.2,0.4,0.2,0.4,0l-0.3-8.5l0-1.2
		C19.7,67,19.3,67,19.4,67.3L19.4,67.3z"/>
	<path class="st2" d="M13.8,68.2l0.2,8.5c0,0.4,0,0.8,0.1,1.2c0,0.1,0.1,0.2,0.2,0.1c0,0,0.1,0,0.1-0.1l0.1-0.1
		c0.2-0.2-0.1-0.4-0.3-0.3L14,77.7l0.3,0.1c-0.1-0.3-0.1-0.6-0.1-0.9l-0.1-2.3l-0.1-5.2v-1.2c0-0.1-0.1-0.2-0.2-0.2
		C13.9,68,13.8,68.1,13.8,68.2L13.8,68.2z"/>
	<path class="st2" d="M39.8,66l-0.3,7.8v1.1c0,0.2,0.4,0.2,0.4,0l0.3-7.8V66C40.1,65.8,39.8,65.8,39.8,66z"/>
	<path class="st2" d="M47.4,64.9v9.9c0,0.1,0.1,0.2,0.2,0.2s0.2-0.1,0.2-0.2l0,0v-9.9c0-0.1-0.1-0.2-0.2-0.2S47.3,64.8,47.4,64.9
		L47.4,64.9z"/>
	<path class="st2" d="M56.5,64L56,73.3l0,1.4c0,0.1,0.1,0.2,0.2,0.2c0,0,0.1,0,0.1,0l0.2-0.1c0.2-0.1,0-0.5-0.2-0.3l-0.2,0.1
		l0.3,0.2l0.5-9.2l0.1-1.4C56.9,63.8,56.5,63.8,56.5,64z"/>
	<path class="st2" d="M67.7,61.8l-0.8,10.5l-0.1,1.5c0,0.2,0.3,0.2,0.4,0.1l0,0c0-0.1,0-0.2-0.1-0.3c-0.1,0-0.1,0-0.2,0l-0.1,0.1
		c-0.2,0.1,0,0.5,0.2,0.3h0.1l-0.3-0.3l0,0l0.4,0.1L68,63.3l0.1-1.5C68.1,61.5,67.8,61.5,67.7,61.8L67.7,61.8z"/>
	<path class="st2" d="M98.3,74.8h0.1h0.1l0.4-0.1l0.3-0.1l0.5-0.1c0.1,0,0.2,0,0.2,0.1c0.1,0.1,0.1,0.1,0.1,0.2c0,0,0,0.1,0,0.1
		c0.1,0.5,0,1-0.2,1.4c-0.1,0.3-0.3,0.5-0.4,0.7c-0.2,0.2-0.4,0.3-0.6,0.4c-0.3,0.1-0.6,0.1-0.9,0.1c-0.3-0.1-0.6-0.2-0.8-0.5
		c-0.3-0.3-0.4-0.6-0.5-0.9c-0.1-0.3-0.1-0.7-0.1-1c0-0.7,0.1-1.3,0.4-1.9c0.2-0.5,0.6-0.8,1.1-1c0.2-0.1,0.4-0.1,0.7-0.1
		c0.2,0,0.4,0.1,0.6,0.2c0.4,0.4,0.6,0.9,0.6,1.4c0,0.1,0,0.2-0.1,0.2c-0.1,0.1-0.1,0.1-0.2,0.1c-0.1,0-0.2,0-0.2-0.1
		c-0.1-0.1-0.1-0.1-0.1-0.2c0-0.3-0.1-0.7-0.3-0.9c-0.2-0.1-0.4-0.2-0.6-0.1c-0.3,0.1-0.6,0.4-0.8,0.7c-0.3,0.5-0.4,1-0.4,1.5
		c0,0.5,0.1,1.1,0.5,1.5c0.1,0.1,0.3,0.2,0.4,0.3c0.2,0.1,0.3,0.1,0.5,0c0.3-0.2,0.6-0.4,0.7-0.8c0.1-0.3,0.2-0.6,0.2-0.9h-0.2
		L99,75.3l-0.4,0.1h-0.1h-0.1c-0.1,0-0.2,0-0.2-0.1c-0.1,0-0.1-0.1-0.1-0.2c0-0.1,0-0.2,0.1-0.2C98.1,74.8,98.2,74.8,98.3,74.8z"/>
	<path class="st2" d="M104.6,73.3c-0.1-0.2-0.3-0.3-0.6-0.3c-0.4-0.1-0.9,0.1-1.2,0.4c-0.3,0.3-0.6,0.8-0.7,1.2
		c-0.1,0.5-0.1,1,0.1,1.4c0.2,0.4,0.5,0.8,0.9,0.9c0.4,0.1,0.8,0.1,1.2-0.1c0.2-0.1,0.3-0.3,0.4-0.4c0.1-0.2,0.2-0.4,0.3-0.6
		c0-0.1,0.1-0.2,0.2-0.2c0.1,0,0.2,0,0.2,0c0.1,0,0.1,0.1,0.2,0.1c0,0.1,0,0.2,0,0.2c-0.1,0.6-0.5,1.1-1,1.4
		c-0.3,0.2-0.5,0.3-0.8,0.3c-0.3,0-0.6,0-0.9-0.1c-0.6-0.2-1.1-0.7-1.3-1.3c-0.2-0.6-0.3-1.2-0.2-1.8c0.1-0.6,0.4-1.2,0.8-1.6
		c0.5-0.5,1.1-0.7,1.8-0.5c0.2,0,0.4,0.1,0.6,0.2c0.2,0.1,0.4,0.3,0.4,0.5c0,0.1,0,0.2,0,0.2c0,0.1-0.1,0.1-0.2,0.2
		c-0.1,0-0.2,0-0.2,0C104.6,73.4,104.6,73.3,104.6,73.3z"/>
	<path class="st2" d="M108.1,72.7c-0.2,0.8-0.3,1.7-0.2,2.6c0,0.7,0,1.3,0.1,1.8c0.5,0,1-0.1,1.4-0.2c0.2,0,0.3,0.1,0.4,0.2
		c0,0,0,0,0,0c0,0.1,0,0.2,0,0.2c0,0.1-0.1,0.1-0.2,0.1c-0.6,0.2-1.2,0.2-1.9,0.3c-0.1,0-0.2,0-0.2-0.1c-0.1-0.1-0.1-0.1-0.1-0.2
		l0,0c-0.1-0.7-0.1-1.4-0.1-2.1c0-0.9,0-1.9,0.3-2.8c0-0.1,0.1-0.1,0.2-0.2c0.1,0,0.2,0,0.2,0c0.1,0,0.1,0.1,0.2,0.2
		C108.1,72.6,108.1,72.7,108.1,72.7z"/>
</g>
</svg>
